<?xml version="1.0" encoding="utf-8"?>
<svg xmlns="http://www.w3.org/2000/svg" xmlns:xlink="http://www.w3.org/1999/xlink" style="margin: auto; background: none; display: block; shape-rendering: auto;" width="200px" height="200px" viewBox="0 0 100 100" preserveAspectRatio="xMidYMid">
<g transform="translate(50 50)">
<g>
<animateTransform attributeName="transform" type="rotate" values="0;45" keyTimes="0;1" dur="0.8695652173913042s" repeatCount="indefinite"></animateTransform><path d="M23.811761799581316 -27 L27.811761799581316 -27 L27.811761799581316 27 L23.811761799581316 27 A36 36 0 0 1 35.92934133251952 -2.254424851554048 L35.92934133251952 -2.254424851554048 L38.75776845726571 0.5740022731921415 L0.574002273192145 38.75776845726571 L-2.2544248515540453 35.92934133251952 A36 36 0 0 1 27 23.811761799581312 L27 23.811761799581312 L27 27.811761799581312 L-27 27.811761799581316 L-27 23.811761799581316 A36 36 0 0 1 2.25442485155405 35.92934133251952 L2.25442485155405 35.92934133251952 L-0.5740022731921393 38.75776845726571 L-38.75776845726571 0.5740022731921468 L-35.92934133251952 -2.2544248515540435 A36 36 0 0 1 -23.811761799581312 27.000000000000004 L-23.811761799581312 27.000000000000004 L-27.811761799581312 27.000000000000004 L-27.81176179958132 -26.999999999999996 L-23.81176179958132 -26.999999999999996 A36 36 0 0 1 -35.92934133251952 2.2544248515540524 L-35.92934133251952 2.2544248515540524 L-38.75776845726571 -0.5740022731921366 L-0.5740022731921655 -38.75776845726571 L2.2544248515540257 -35.92934133251952 A36 36 0 0 1 -27.000000000000004 -23.81176179958131 L-27.000000000000004 -23.81176179958131 L-27.000000000000004 -27.81176179958131 L27.000000000000007 -27.81176179958131 L27.000000000000007 -23.81176179958131 A36 36 0 0 1 -2.2544248515540386 -35.92934133251952 L-2.2544248515540386 -35.92934133251952 L0.5740022731921508 -38.75776845726571 L38.75776845726571 -0.5740022731921681 L35.92934133251952 2.254424851554023 A36 36 0 0 1 23.811761799581298 -27.000000000000014 M0 0A0 0 0 1 0 0 0 A0 0 0 1 0 0 0" fill="#874cc1"></path></g></g>
<!-- [ldio] generated by https://loading.io/ --></svg>