<?xml version="1.0" encoding="utf-8"?>
<svg xmlns="http://www.w3.org/2000/svg" xmlns:xlink="http://www.w3.org/1999/xlink" style="margin: auto; background: none; display: block; shape-rendering: auto;" width="264px" height="264px" viewBox="0 0 100 100" preserveAspectRatio="xMidYMid">
<g transform="translate(50 50)">
<g>
<animateTransform attributeName="transform" type="rotate" values="0;45" keyTimes="0;1" dur="0.6097560975609756s" repeatCount="indefinite"></animateTransform><path d="M20.21756661915573 -23.5 L24.21756661915573 -23.5 L24.21756661915573 23.5 L20.21756661915573 23.5 A31 31 0 0 1 30.91298781337966 -2.321030902388071 L30.91298781337966 -2.321030902388071 L33.74141493812585 0.5073962223581194 L0.5073962223581252 33.74141493812585 L-2.3210309023880655 30.91298781337966 A31 31 0 0 1 23.5 20.217566619155726 L23.5 20.217566619155726 L23.5 24.217566619155726 L-23.499999999999996 24.217566619155733 L-23.499999999999996 20.217566619155733 A31 31 0 0 1 2.3210309023880695 30.91298781337966 L2.3210309023880695 30.91298781337966 L-0.5073962223581203 33.74141493812585 L-33.74141493812585 0.507396222358127 L-30.91298781337966 -2.3210309023880633 A31 31 0 0 1 -20.21756661915573 23.5 L-20.21756661915573 23.5 L-24.21756661915573 23.5 L-24.217566619155733 -23.499999999999996 L-20.217566619155733 -23.499999999999996 A31 31 0 0 1 -30.91298781337966 2.3210309023880713 L-30.91298781337966 2.3210309023880713 L-33.74141493812585 -0.5073962223581185 L-0.5073962223581288 -33.74141493812585 L2.3210309023880615 -30.91298781337966 A31 31 0 0 1 -23.5 -20.217566619155726 L-23.5 -20.217566619155726 L-23.5 -24.217566619155726 L23.499999999999993 -24.217566619155736 L23.499999999999993 -20.217566619155736 A31 31 0 0 1 -2.321030902388073 -30.91298781337966 L-2.321030902388073 -30.91298781337966 L0.5073962223581163 -33.74141493812585 L33.74141493812585 -0.5073962223581305 L30.91298781337966 2.32103090238806 A31 31 0 0 1 20.217566619155726 -23.500000000000004 M0 0A0 0 0 1 0 0 0 A0 0 0 1 0 0 0" fill="#0951ae"></path></g></g>
<!-- [ldio] generated by https://loading.io/ --></svg>